<?xml version="1.0" ?><svg data-name="Layer 1" id="Layer_1" viewBox="0 0 32 32" xmlns="http://www.w3.org/2000/svg" xmlns:xlink="http://www.w3.org/1999/xlink"><defs><style>.cls-1{fill:url(#linear-gradient);}.cls-2{fill:url(#linear-gradient-2);}.cls-3{fill:url(#linear-gradient-3);}.cls-4{fill:url(#linear-gradient-4);}.cls-5{fill:url(#linear-gradient-5);}.cls-6{fill:url(#linear-gradient-6);}.cls-7{fill:url(#linear-gradient-7);}.cls-8{fill:url(#linear-gradient-8);}.cls-9{fill:url(#linear-gradient-9);}.cls-10{fill:#1282ff;}</style><linearGradient gradientUnits="userSpaceOnUse" id="linear-gradient" x1="8" x2="8" y1="6" y2="10"><stop offset="0.24" stop-color="#cdeaff"/><stop offset="0.34" stop-color="#c2e4ff"/><stop offset="0.5" stop-color="#a5d5ff"/><stop offset="0.72" stop-color="#76bcff"/><stop offset="0.98" stop-color="#369aff"/><stop offset="1" stop-color="#3197ff"/></linearGradient><linearGradient id="linear-gradient-2" x1="16" x2="16" xlink:href="#linear-gradient"/><linearGradient id="linear-gradient-3" x1="24" x2="24" xlink:href="#linear-gradient"/><linearGradient id="linear-gradient-4" xlink:href="#linear-gradient" y1="14" y2="18"/><linearGradient id="linear-gradient-5" x1="16" x2="16" xlink:href="#linear-gradient" y1="14" y2="18"/><linearGradient id="linear-gradient-6" x1="24" x2="24" xlink:href="#linear-gradient" y1="14" y2="18"/><linearGradient id="linear-gradient-7" xlink:href="#linear-gradient" y1="22" y2="26"/><linearGradient id="linear-gradient-8" x1="16" x2="16" xlink:href="#linear-gradient" y1="22" y2="26"/><linearGradient id="linear-gradient-9" x1="24" x2="24" xlink:href="#linear-gradient" y1="22" y2="26"/></defs><title/><rect class="cls-1" height="4" width="4" x="6" y="6"/><rect class="cls-2" height="4" width="4" x="14" y="6"/><rect class="cls-3" height="4" width="4" x="22" y="6"/><rect class="cls-4" height="4" width="4" x="6" y="14"/><rect class="cls-5" height="4" width="4" x="14" y="14"/><rect class="cls-6" height="4" width="4" x="22" y="14"/><rect class="cls-7" height="4" width="4" x="6" y="22"/><rect class="cls-8" height="4" width="4" x="14" y="22"/><rect class="cls-9" height="4" width="4" x="22" y="22"/><path class="cls-10" d="M5,11h6V5H5ZM7,7H9V9H7Z"/><path class="cls-10" d="M13,11h6V5H13Zm2-4h2V9H15Z"/><path class="cls-10" d="M21,5v6h6V5Zm4,4H23V7h2Z"/><path class="cls-10" d="M5,19h6V13H5Zm2-4H9v2H7Z"/><path class="cls-10" d="M13,19h6V13H13Zm2-4h2v2H15Z"/><path class="cls-10" d="M21,19h6V13H21Zm2-4h2v2H23Z"/><path class="cls-10" d="M5,27h6V21H5Zm2-4H9v2H7Z"/><path class="cls-10" d="M13,27h6V21H13Zm2-4h2v2H15Z"/><path class="cls-10" d="M21,27h6V21H21Zm2-4h2v2H23Z"/></svg>