<?xml version="1.0" ?><!DOCTYPE svg  PUBLIC '-//W3C//DTD SVG 1.1//EN'  'http://www.w3.org/Graphics/SVG/1.1/DTD/svg11.dtd'><svg height="6.82666in" style="shape-rendering:geometricPrecision; text-rendering:geometricPrecision; image-rendering:optimizeQuality; fill-rule:evenodd; clip-rule:evenodd" viewBox="0 0 6.82666 6.82666" width="6.82666in" xml:space="preserve" xmlns="http://www.w3.org/2000/svg" xmlns:xlink="http://www.w3.org/1999/xlink"><defs><style type="text/css">
   <![CDATA[
    .fil1 {fill:#265697}
    .fil3 {fill:#D97B16}
    .fil0 {fill:#FFB300}
    .fil2 {fill:#FFFFFE}
   ]]>
  </style></defs><g id="Layer_x0020_1"><path class="fil0" d="M5.79596 6.66846c0.123547,-0.0240906 0.232598,-0.0549567 0.328213,-0.096 0.0977047,-0.0344724 0.188437,-0.0887874 0.269102,-0.178035 0.102177,-0.103059 0.175862,-0.238449 0.224713,-0.418236 0.253268,-0.932126 0.282984,-4.01662 0.0506575,-4.94449 -0.0240591,-0.123622 -0.0548858,-0.232748 -0.0958858,-0.328425 -0.0343622,-0.0977165 -0.0886339,-0.188437 -0.177646,-0.269146 -0.103146,-0.10252 -0.23874,-0.176433 -0.418925,-0.22539 -0.932598,-0.253291 -4.01682,-0.283126 -4.94484,-0.0505709 -0.123362,0.0240276 -0.23226,0.0548071 -0.327791,0.0957126 -0.0979488,0.0343819 -0.188898,0.0887756 -0.269756,0.178075 -0.10235,0.103102 -0.176142,0.238598 -0.225059,0.418591 -0.253276,0.932858 -0.283157,4.0163 -0.0506457,4.94461 0.0241339,0.12398 0.0550787,0.233374 0.0962598,0.329248 0.0344409,0.0974961 0.0886378,0.188047 0.177626,0.268559 0.103102,0.102327 0.238579,0.176122 0.418547,0.225028 0.931783,0.25328 4.0182,0.283028 4.94543,0.0504724z"/><path class="fil1" d="M1.25706 1.78925l4.31254 0c0.222059,0 0.403732,0.181669 0.403732,0.403728l0 2.44071c0,0.222059 -0.181673,0.403728 -0.403732,0.403728l-4.31254 0c-0.222051,0 -0.403724,-0.181669 -0.403724,-0.403728l0 -2.44071c0,-0.222059 0.181673,-0.403728 0.403724,-0.403728z"/><path class="fil2" d="M1.25706 1.86924c-0.177898,0 -0.323728,0.145835 -0.323728,0.323732l0 2.44071c0,0.177898 0.145831,0.323732 0.323728,0.323732l4.31254 0c0.177902,0 0.323736,-0.145827 0.323736,-0.323732l0 -2.44071c0,-0.177906 -0.145835,-0.323732 -0.323736,-0.323732l-4.31254 0z"/><g id="_307661448"><g><path class="fil1" d="M4.06828 3.88756l0.260626 0.000177165 0.056122 -0.142331c0.0829646,0 0.166098,0.000673228 0.249035,0.000114173 0.0850315,-0.000574803 0.0655354,-0.0304606 0.103992,0.142039l0.232461 -0.000492126 -0.203894 -0.944906c-0.174953,0 -0.278496,-0.0291102 -0.328748,0.0818976 -0.0424961,0.093878 -0.0829764,0.192071 -0.123909,0.287291 -0.0203898,0.047437 -0.238394,0.53974 -0.245685,0.576209zm0.638319 -0.293752l-0.0987559 -0.387134 -0.173346 0.388142 0.272102 -0.00100787z" id="_308263544"/><path class="fil1" d="M3.39616 3.64209l-0.0315512 0.211634c0.165764,0.0452126 0.316819,0.0743228 0.489335,0.0147559 0.234996,-0.0811378 0.331654,-0.34415 0.0978898,-0.502614 -0.0596339,-0.0404252 -0.132354,-0.0637441 -0.188126,-0.104465 -0.102898,-0.075126 0.0297598,-0.173594 0.213201,-0.129583l0.109772 0.0302244 0.0316811 -0.199197c-0.167437,-0.044185 -0.319421,-0.0634016 -0.477102,0.0169094 -0.165299,0.0841929 -0.218295,0.25876 -0.140933,0.370941 0.0378425,0.054878 0.0881181,0.0925512 0.156571,0.128776 0.0582362,0.0308228 0.15613,0.0609016 0.160949,0.124945 0.00647638,0.0860945 -0.107673,0.10224 -0.187311,0.0985748 -0.114154,-0.00525591 -0.143843,-0.0346614 -0.234374,-0.0609016z" id="_308263448"/><path class="fil1" d="M2.45977 3.4315c-0.0242992,-0.0341063 -0.0434843,-0.0834646 -0.0660276,-0.116925 -0.0258307,-0.0383465 -0.0501575,-0.0664882 -0.0770906,-0.0970748 -0.0268465,-0.0304843 -0.145051,-0.132992 -0.198091,-0.149705l0.226705 0.818524 0.265413 -0.000933071 0.39513 -0.943465 -0.266287 0.000468504c-0.048937,0.151051 -0.18252,0.47348 -0.247429,0.637579l-0.0323228 -0.148469z" id="_308262584"/><polygon class="fil1" id="_308262608" points="2.95242,3.88678 3.20411,3.88666 3.36148,2.94123 3.10967,2.94239 "/><path class="fil1" d="M2.45977 3.4315c-0.00524803,-0.0647087 -0.0767598,-0.420823 -0.100508,-0.45178 -0.0437795,-0.0570709 -0.159039,-0.038311 -0.233437,-0.038311l-0.269681 0.00714567c0.00831102,0.0282244 0.494886,0.330331 0.603626,0.482945z" id="_308262968"/><rect class="fil1" height="0.0203522" id="_308263064" width="0.177368" x="4.59295" y="2.93893"/></g><g><rect class="fil3" height="0.5145" id="_308263016" width="4.96001" x="0.933327" y="4.06858"/><rect class="fil1" height="0.5145" id="_308263280" width="5.01239" x="0.907134" y="2.24358"/></g></g></g></svg>